<?xml version="1.0" encoding="UTF-8" standalone="no"?>
<!-- Created with Inkscape (http://www.inkscape.org/) -->

<svg
   xmlns:dc="http://purl.org/dc/elements/1.1/"
   xmlns:cc="http://creativecommons.org/ns#"
   xmlns:rdf="http://www.w3.org/1999/02/22-rdf-syntax-ns#"
   xmlns:svg="http://www.w3.org/2000/svg"
   xmlns="http://www.w3.org/2000/svg"
   xmlns:sodipodi="http://sodipodi.sourceforge.net/DTD/sodipodi-0.dtd"
   xmlns:inkscape="http://www.inkscape.org/namespaces/inkscape"
   id="svg3095"
   sodipodi:docname="chsym_marina_c.svg"
   viewBox="0 0 60 60"
   sodipodi:version="0.32"
   version="1.0"
   inkscape:output_extension="org.inkscape.output.svg.inkscape"
   inkscape:version="0.48.4 r9939"
   width="100%"
   height="100%"
   inkscape:export-filename="/home/gonzo/Изображения/clipart/chsym_marina_c.png"
   inkscape:export-xdpi="192"
   inkscape:export-ydpi="192">
  <defs
     id="defs4381" />
  <sodipodi:namedview
     id="base"
     bordercolor="#666666"
     inkscape:pageshadow="2"
     inkscape:window-y="24"
     pagecolor="#ffffff"
     inkscape:window-height="744"
     inkscape:zoom="9.9314874"
     inkscape:window-x="0"
     showgrid="false"
     borderopacity="1.0"
     inkscape:current-layer="layer1"
     inkscape:cx="31.291688"
     inkscape:cy="30.049461"
     inkscape:window-width="1366"
     inkscape:pageopacity="0.0"
     inkscape:document-units="px"
     showguides="true"
     inkscape:guide-bbox="true"
     inkscape:window-maximized="1">
    <sodipodi:guide
       orientation="0,1"
       position="-17.016585,59.004254"
       id="guide4429" />
    <sodipodi:guide
       orientation="0,1"
       position="4.9338028,1.0068985"
       id="guide4431" />
    <sodipodi:guide
       orientation="1,0"
       position="1.0068985,21.950388"
       id="guide4433" />
    <sodipodi:guide
       orientation="1,0"
       position="59.104943,25.877292"
       id="guide4435" />
  </sodipodi:namedview>
  <g
     id="layer1"
     inkscape:label="Ebene 1"
     inkscape:groupmode="layer"
     transform="translate(-288.71,-165.272)">
    <g
       id="g4417"
       transform="matrix(0.92762901,0,0,0.9648003,21.900213,6.92212)">
      <g
         id="g4389">
        <path
           sodipodi:cx="618.54169"
           sodipodi:cy="961.85254"
           d="m 648.06339,961.85254 c 0,15.62097 -13.21731,28.28427 -29.5217,28.28427 -16.30439,0 -29.52171,-12.6633 -29.52171,-28.28427 0,-15.62097 13.21732,-28.28427 29.52171,-28.28427 16.30439,0 29.5217,12.6633 29.5217,28.28427 z"
           sodipodi:type="arc"
           style="fill:none;stroke:#000080;stroke-width:3.54329991;stroke-miterlimit:3.98790002"
           sodipodi:ry="28.284271"
           sodipodi:rx="29.521708"
           id="path12658"
           transform="translate(-298.54,-766.63)" />
        <path
           inkscape:connector-curvature="0"
           d="m 314.88,210.77 -0.71,-41.7 c 6.23,13.39 11.09,27.71 25.45,35.64 l -42.88,0 c -1.11,-13.69 8.82,-24.35 17.71,-35.29"
           style="fill:none;stroke:#000080;stroke-width:3.55719995;stroke-miterlimit:3.98790002"
           sodipodi:nodetypes="ccccc"
           id="path12664" />
        <path
           inkscape:connector-curvature="0"
           d="m 315.28,222.11 c -6.58,-1.28 -13.18,-5.17 -17.1,-10.07 l -1.28,-1.6 3.3,0.01 c 9.25,0.03 41.77,0.75 41.94,0.93 0.3,0.31 -1.95,2.68 -4.53,4.77 -2.77,2.26 -6.32,4.12 -9.9,5.19 -2.96,0.89 -9.68,1.31 -12.43,0.77 z"
           style="fill:#000080;stroke:#000080"
           id="path12674" />
      </g>
      <g
         id="text4394"
         style="font-size:28px;font-style:normal;font-variant:normal;font-weight:normal;font-stretch:normal;text-align:start;line-height:89.99999762%;letter-spacing:0px;word-spacing:0px;writing-mode:lr-tb;text-anchor:start;fill:#d40000;fill-opacity:1;stroke:none;font-family:Bombardier;-inkscape-font-specification:Bombardier">
        <path
           id="path4407"
           d="m 301.05258,208.02921 0,-13.44 -2.24,-2.24 -6.664,0 -2.24,2.24 0,13.44 2.24,2.24 6.664,0 2.24,-2.24 m -3.248,-0.868 -4.648,0 0,-11.704 4.648,0 0,11.704"
           inkscape:connector-curvature="0" />
        <path
           id="path4409"
           d="m 314.99789,208.02921 0,-13.44 -2.24,-2.24 -6.664,0 -2.24,2.24 0,13.44 2.24,2.24 6.664,0 2.24,-2.24 m -3.248,-0.868 -4.648,0 0,-11.704 4.648,0 0,11.704"
           inkscape:connector-curvature="0" />
        <path
           id="path4411"
           d="m 321.6072,202.79321 0,-3.668 -3.528,0 0,3.668 3.528,0 m 0,7.476 0,-3.668 -3.528,0 0,3.668 3.528,0"
           inkscape:connector-curvature="0" />
        <path
           id="path4413"
           d="m 335.83383,208.02921 0,-13.44 -2.24,-2.24 -6.664,0 -2.24,2.24 0,13.44 2.24,2.24 6.664,0 2.24,-2.24 m -3.248,-0.868 -4.648,0 0,-11.704 4.648,0 0,11.704"
           inkscape:connector-curvature="0" />
        <path
           id="path4415"
           d="m 349.77914,208.02921 0,-6.804 -2.24,-2.24 -5.656,0 0,-3.528 7.896,0 0,-3.108 -11.144,0 0,7.644 2.24,2.24 5.656,0 0,4.928 -7.896,0 0,0.868 2.24,2.24 6.664,0 2.24,-2.24"
           inkscape:connector-curvature="0" />
      </g>
    </g>
  </g>
  <metadata
     id="metadata4379">
    <rdf:RDF>
      <cc:Work>
        <dc:format>image/svg+xml</dc:format>
        <dc:type
           rdf:resource="http://purl.org/dc/dcmitype/StillImage" />
        <cc:license
           rdf:resource="http://creativecommons.org/licenses/publicdomain/" />
        <dc:publisher>
          <cc:Agent
             rdf:about="http://openclipart.org/">
            <dc:title>Openclipart</dc:title>
          </cc:Agent>
        </dc:publisher>
        <dc:title></dc:title>
        <dc:date>2010-06-11T22:05:09</dc:date>
        <dc:description>sea chart symbol marina</dc:description>
        <dc:source>https://openclipart.org/detail/66241/sea-chart-symbol-marina-by-seafish</dc:source>
        <dc:creator>
          <cc:Agent>
            <dc:title>seafish</dc:title>
          </cc:Agent>
        </dc:creator>
        <dc:subject>
          <rdf:Bag>
            <rdf:li>chart</rdf:li>
            <rdf:li>marina</rdf:li>
            <rdf:li>navigation</rdf:li>
            <rdf:li>sailing</rdf:li>
            <rdf:li>sea</rdf:li>
            <rdf:li>symbol</rdf:li>
          </rdf:Bag>
        </dc:subject>
      </cc:Work>
      <cc:License
         rdf:about="http://creativecommons.org/licenses/publicdomain/">
        <cc:permits
           rdf:resource="http://creativecommons.org/ns#Reproduction" />
        <cc:permits
           rdf:resource="http://creativecommons.org/ns#Distribution" />
        <cc:permits
           rdf:resource="http://creativecommons.org/ns#DerivativeWorks" />
      </cc:License>
    </rdf:RDF>
  </metadata>
</svg>
